<?xml version="1.0" encoding="UTF-8"?>
<svg id="Layer_1" data-name="Layer 1" xmlns="http://www.w3.org/2000/svg" viewBox="0 0 1350 1350">
  <defs>
    <style>
      .cls-1 {
        opacity: .9;
      }

      .cls-2 {
        fill: #1a1a1a;
      }
    </style>
  </defs>
  <g class="cls-1">
    <g>
      <path class="cls-2" d="M1260.76,407.22c-8.59-9.47-49.27-34.1-63.56-30.34-14.2,3.86-45.42,35.07-45.42,35.07l1.43,24.27-107.74-144.02c-9.67-13.59-24.68-22.88-41.2-25.5-55.1-8.72-197.49-28.99-329.28-28.99v.03c-131.43,0-274.07,20.21-329.35,28.92-16.45,2.65-31.44,11.94-40.97,25.28l-108.08,146.83,1.65-26.83s-31.3-31.21-45.5-35.07c-14.2-3.77-54.97,20.87-63.48,30.34-8.59,9.56-.96,45.5,0,55.94.88,10.43,72.94,16.13,72.94,16.13l-39.8,54.97v179.12h27.53v-27.44l30.25-35.07,169.74,134.58,78.64-134.58h492.9l78.64,134.58,169.65-134.58,30.33,35.07v27.44h27.44v-179.12l-39.8-54.97s72.07-5.7,73.03-16.13c.96-10.43,8.5-46.38,0-55.94ZM205.79,602.47l-37.87-34.1v-33.14l51.2-37,54.01,37.96h124.14l24.64,66.28h-216.11ZM485.47,602.47l35.95-21.48h307.12l36.03,21.48h-379.1ZM675.02,414.85c-131.03-3.07-365.42,17.64-448.39,25.49l99.28-132.86c5.64-7.89,14.37-13.3,23.88-14.83,54.62-8.6,195.66-28.59,325.24-28.59v-.03c129.92,0,270.66,20.04,325.14,28.67,9.73,1.54,18.21,6.79,24.08,15.03l99.21,132.62c-82.86-7.84-317.32-28.56-448.42-25.49ZM1182.03,568.36l-37.87,34.1h-216.11l24.64-66.28h124.14l54.09-37.96,51.11,37v33.14Z"/>
      <polygon class="cls-2" points="891.13 739.94 891.13 853.65 675.02 1019.53 458.91 853.65 458.91 739.94 427.61 739.94 362.2 878.29 675.02 1112.29 987.75 878.29 922.35 739.94 891.13 739.94"/>
      <polygon class="cls-2" points="706.61 774.9 674.98 710.8 643.34 774.9 572.59 785.18 623.78 835.08 611.7 905.54 674.98 872.28 738.25 905.54 726.17 835.08 777.36 785.18 706.61 774.9"/>
    </g>
  </g>
</svg>